<svg width="283" height="283" viewBox="0 0 283 283" fill="none" xmlns="http://www.w3.org/2000/svg">
<path d="M202.23 179.407H171.654V144.407H214.154H257.154H267.63C266.298 213.117 210.183 268.407 141.154 268.407C71.2903 268.407 14.6543 211.771 14.6543 141.907C14.6543 72.0432 71.2903 15.4072 141.154 15.4072C163.131 15.4072 183.793 21.0095 201.796 30.8623L176.279 75.0587C165.785 69.5336 153.831 66.4072 141.154 66.4072C99.4568 66.4072 65.6543 100.21 65.6543 141.907C65.6543 183.605 99.4568 217.407 141.154 217.407C167.581 217.407 190.834 203.828 204.32 183.279L206.861 179.407H202.23Z" fill="black" stroke="black" stroke-width="5"/>
<path d="M277.524 135.886L277.503 135.407H277.024H168.654V132.407H276.792H281.154H281.338C281.548 135.547 281.654 138.714 281.654 141.907C281.654 219.503 218.75 282.407 141.154 282.407C63.5583 282.407 0.654297 219.503 0.654297 141.907C0.654297 64.3112 63.5583 1.40723 141.154 1.40723C165.927 1.40723 189.2 7.81785 209.408 19.0703L207.322 22.4886C187.722 11.6052 165.161 5.40723 141.154 5.40723C65.7674 5.40723 4.6543 66.5204 4.6543 141.907C4.6543 217.294 65.7674 278.407 141.154 278.407C216.541 278.407 277.654 217.294 277.654 141.907C277.654 139.889 277.611 137.882 277.524 135.886Z" stroke="black"/>
</svg>
